<svg id="Calque_1" data-name="Calque 1" xmlns="http://www.w3.org/2000/svg" xmlns:xlink="http://www.w3.org/1999/xlink" viewBox="0 0 1080 1080"><defs><style>.cls-1,.cls-5,.cls-6{fill:none;}.cls-2{clip-path:url(#clip-path);}.cls-3{fill:url(#Dégradé_sans_nom);}.cls-4{clip-path:url(#clip-path-2);}.cls-5{stroke:#f2fafd;stroke-width:7px;}.cls-5,.cls-6{stroke-miterlimit:10;}.cls-6{stroke:#fff;stroke-width:27px;}</style><clipPath id="clip-path"><rect class="cls-1" x="0.99" y="0.5" width="1079.01" height="1079.5"/></clipPath><linearGradient id="Dégradé_sans_nom" y1="1080" x2="1" y2="1080" gradientTransform="matrix(1080, 0, 0, -1080, 0.99, 1166940.5)" gradientUnits="userSpaceOnUse"><stop offset="0" stop-color="#8dc9a0"/><stop offset="1" stop-color="#5cc5f0"/></linearGradient><clipPath id="clip-path-2"><rect class="cls-1" width="1080" height="1080"/></clipPath></defs><title>Logo SVG Pharmabox</title><g class="cls-2"><rect class="cls-3" x="0.99" y="0.5" width="1079.01" height="1079.5"/></g><g class="cls-4"><path class="cls-5" d="M169.05,540.78c0-205.41,166.52-371.93,371.93-371.93"/><path class="cls-5" d="M912.91,540.78c0,205.41-166.52,371.93-371.93,371.93"/><path class="cls-5" d="M857.82,540.78c0,175-141.86,316.84-316.84,316.84"/><path class="cls-5" d="M224.14,540.78C224.14,365.8,366,224,541,224"/><path class="cls-6" d="M517,385.2V354.11a28.89,28.89,0,0,1,28.88-28.89h41.49a28.89,28.89,0,0,1,28.89,28.89V506.48a64.84,64.84,0,0,0,64.84,64.84H703.8a51,51,0,0,0,51-51V463.72A28.88,28.88,0,0,0,726,434.83H681.43"/><path class="cls-6" d="M579.25,687.87V719a28.9,28.9,0,0,1-28.89,28.89H508.87A28.89,28.89,0,0,1,480,719V557.49a55.75,55.75,0,0,0-55.74-55.74h-27.1a55.72,55.72,0,0,0-55.72,55.72v51.88a28.89,28.89,0,0,0,28.89,28.89h44.53"/></g></svg>